<svg width="200" height="57" viewBox="0 0 200 57" fill="none" xmlns="http://www.w3.org/2000/svg">
<g clip-path="url(#clip0_1_486)">
<path d="M70.3945 27.3915V28.6718C70.3945 30.7252 70.1162 32.5683 69.5596 34.2011C69.0029 35.8339 68.2174 37.2255 67.2031 38.3759C66.1888 39.5139 64.9766 40.386 63.5664 40.9921C62.1686 41.5982 60.6162 41.9013 58.9092 41.9013C57.2145 41.9013 55.6621 41.5982 54.252 40.9921C52.8542 40.386 51.6419 39.5139 50.6152 38.3759C49.5885 37.2255 48.7907 35.8339 48.2217 34.2011C47.665 32.5683 47.3867 30.7252 47.3867 28.6718V27.3915C47.3867 25.3258 47.665 23.4827 48.2217 21.8622C48.7783 20.2294 49.5638 18.8378 50.5781 17.6874C51.6048 16.537 52.8171 15.6588 54.2148 15.0527C55.625 14.4466 57.1774 14.1435 58.8721 14.1435C60.5791 14.1435 62.1315 14.4466 63.5293 15.0527C64.9395 15.6588 66.1517 16.537 67.166 17.6874C68.1927 18.8378 68.9844 20.2294 69.541 21.8622C70.11 23.4827 70.3945 25.3258 70.3945 27.3915ZM64.7725 28.6718V27.3544C64.7725 25.9195 64.6426 24.6578 64.3828 23.5693C64.123 22.4807 63.7396 21.5654 63.2324 20.8232C62.7253 20.081 62.1068 19.5244 61.377 19.1533C60.6471 18.7698 59.8122 18.5781 58.8721 18.5781C57.932 18.5781 57.097 18.7698 56.3672 19.1533C55.6497 19.5244 55.0374 20.081 54.5303 20.8232C54.0355 21.5654 53.6582 22.4807 53.3984 23.5693C53.1387 24.6578 53.0088 25.9195 53.0088 27.3544V28.6718C53.0088 30.0943 53.1387 31.3561 53.3984 32.457C53.6582 33.5455 54.0417 34.4671 54.5488 35.2216C55.056 35.9638 55.6745 36.5266 56.4043 36.9101C57.1341 37.2936 57.9691 37.4853 58.9092 37.4853C59.8493 37.4853 60.6842 37.2936 61.4141 36.9101C62.1439 36.5266 62.7562 35.9638 63.251 35.2216C63.7458 34.4671 64.123 33.5455 64.3828 32.457C64.6426 31.3561 64.7725 30.0943 64.7725 28.6718ZM79.4121 25.8329V41.5302H74.0684V21.454H79.0967L79.4121 25.8329ZM85.4609 21.3242L85.3682 26.2783C85.1084 26.2411 84.793 26.2102 84.4219 26.1855C84.0632 26.1484 83.7354 26.1298 83.4385 26.1298C82.6839 26.1298 82.0283 26.2288 81.4717 26.4267C80.9274 26.6122 80.4697 26.8906 80.0986 27.2617C79.7399 27.6327 79.4678 28.0842 79.2822 28.6161C79.109 29.148 79.0101 29.7542 78.9854 30.4345L77.9092 30.1005C77.9092 28.8017 78.0391 27.608 78.2988 26.5195C78.5586 25.4186 78.9359 24.4599 79.4307 23.6435C79.9378 22.8271 80.5563 22.1962 81.2861 21.7509C82.016 21.3056 82.8509 21.0829 83.791 21.0829C84.0879 21.0829 84.391 21.1077 84.7002 21.1572C85.0094 21.1943 85.263 21.2499 85.4609 21.3242ZM100.323 21.454H105.166V40.8622C105.166 42.693 104.758 44.2454 103.941 45.5195C103.137 46.8059 102.012 47.777 100.564 48.4326C99.1172 49.1005 97.4349 49.4345 95.5176 49.4345C94.6764 49.4345 93.7858 49.3232 92.8457 49.1005C91.918 48.8779 91.0273 48.5315 90.1738 48.0615C89.3327 47.5914 88.6276 46.9977 88.0586 46.2802L90.415 43.1259C91.0335 43.8434 91.751 44.4 92.5674 44.7958C93.3838 45.204 94.2868 45.4081 95.2764 45.4081C96.2412 45.4081 97.0576 45.2288 97.7256 44.8701C98.3936 44.5237 98.9069 44.0104 99.2656 43.33C99.6243 42.662 99.8037 41.8518 99.8037 40.8994V26.0927L100.323 21.454ZM86.8154 31.7333V31.3437C86.8154 29.8098 87.001 28.4182 87.3721 27.1689C87.7555 25.9072 88.2936 24.8248 88.9863 23.9218C89.6914 23.0188 90.5449 22.3199 91.5469 21.8251C92.5488 21.3303 93.6807 21.0829 94.9424 21.0829C96.2783 21.0829 97.3978 21.3303 98.3008 21.8251C99.2038 22.3199 99.946 23.025 100.527 23.9404C101.109 24.8434 101.56 25.9133 101.882 27.1503C102.216 28.3749 102.476 29.7171 102.661 31.1767V32.0302C102.476 33.428 102.197 34.7268 101.826 35.9267C101.455 37.1266 100.966 38.178 100.36 39.081C99.7542 39.9716 98.9997 40.6643 98.0967 41.1591C97.2061 41.6539 96.1423 41.9013 94.9053 41.9013C93.6683 41.9013 92.5488 41.6477 91.5469 41.1406C90.5573 40.6334 89.71 39.9221 89.0049 39.0068C88.2998 38.0914 87.7555 37.0152 87.3721 35.7783C87.001 34.5413 86.8154 33.193 86.8154 31.7333ZM92.1592 31.3437V31.7333C92.1592 32.5621 92.2396 33.3352 92.4004 34.0527C92.5612 34.7701 92.8086 35.4072 93.1426 35.9638C93.4889 36.5081 93.9157 36.9348 94.4229 37.2441C94.9424 37.541 95.5547 37.6894 96.2598 37.6894C97.237 37.6894 98.0348 37.4853 98.6533 37.0771C99.2718 36.6565 99.7357 36.0813 100.045 35.3515C100.354 34.6217 100.534 33.7805 100.583 32.8281V30.3974C100.558 29.6181 100.453 28.9192 100.268 28.3007C100.082 27.6699 99.8223 27.1318 99.4883 26.6865C99.1543 26.2411 98.7214 25.8948 98.1895 25.6474C97.6576 25.4 97.0267 25.2763 96.2969 25.2763C95.5918 25.2763 94.9795 25.4371 94.46 25.7587C93.9528 26.068 93.526 26.4947 93.1797 27.039C92.8457 27.5833 92.5921 28.2265 92.4189 28.9687C92.2458 29.6985 92.1592 30.4902 92.1592 31.3437ZM120.158 37.0029V28.0595C120.158 27.4163 120.053 26.8658 119.843 26.4081C119.632 25.9381 119.305 25.5732 118.859 25.3134C118.426 25.0536 117.864 24.9238 117.171 24.9238C116.577 24.9238 116.064 25.0289 115.631 25.2392C115.198 25.4371 114.864 25.7278 114.629 26.1113C114.394 26.4824 114.276 26.9215 114.276 27.4286H108.933C108.933 26.5751 109.131 25.7649 109.526 24.998C109.922 24.2311 110.497 23.5569 111.252 22.9755C112.007 22.3818 112.903 21.9179 113.942 21.5839C114.994 21.2499 116.169 21.0829 117.468 21.0829C119.026 21.0829 120.412 21.3427 121.624 21.8622C122.836 22.3818 123.789 23.1611 124.481 24.2001C125.187 25.2392 125.539 26.538 125.539 28.0966V36.6874C125.539 37.7883 125.607 38.6913 125.743 39.3964C125.879 40.0891 126.077 40.6952 126.337 41.2148V41.5302H120.938C120.678 40.9859 120.48 40.3056 120.344 39.4892C120.22 38.6604 120.158 37.8316 120.158 37.0029ZM120.863 29.3027L120.9 32.3271H117.913C117.208 32.3271 116.596 32.4075 116.076 32.5683C115.557 32.7291 115.13 32.9579 114.796 33.2548C114.462 33.5393 114.215 33.8733 114.054 34.2568C113.905 34.6402 113.831 35.0608 113.831 35.5185C113.831 35.9762 113.936 36.3906 114.146 36.7617C114.357 37.1204 114.66 37.4049 115.056 37.6152C115.451 37.8131 115.915 37.912 116.447 37.912C117.251 37.912 117.95 37.7512 118.544 37.4296C119.138 37.108 119.595 36.7122 119.917 36.2421C120.251 35.7721 120.424 35.3268 120.437 34.9062L121.847 37.1699C121.649 37.677 121.377 38.2027 121.03 38.747C120.696 39.2913 120.27 39.8046 119.75 40.287C119.23 40.7571 118.606 41.1467 117.876 41.456C117.146 41.7529 116.28 41.9013 115.278 41.9013C114.004 41.9013 112.848 41.6477 111.809 41.1406C110.782 40.621 109.965 39.9098 109.359 39.0068C108.766 38.0914 108.469 37.0523 108.469 35.8896C108.469 34.8382 108.667 33.9042 109.062 33.0878C109.458 32.2714 110.04 31.5849 110.807 31.0283C111.586 30.4592 112.557 30.0325 113.72 29.748C114.882 29.4511 116.231 29.3027 117.765 29.3027H120.863ZM134.891 25.7402V41.5302H129.547V21.454H134.557L134.891 25.7402ZM134.111 30.787H132.664C132.664 29.3027 132.856 27.9667 133.239 26.7792C133.623 25.5794 134.161 24.5589 134.854 23.7177C135.546 22.8642 136.369 22.2148 137.321 21.7695C138.286 21.3118 139.362 21.0829 140.55 21.0829C141.49 21.0829 142.35 21.219 143.129 21.4911C143.908 21.7633 144.576 22.1962 145.133 22.79C145.702 23.3837 146.135 24.1692 146.432 25.1464C146.741 26.1236 146.896 27.3173 146.896 28.7275V41.5302H141.515V28.7089C141.515 27.8183 141.391 27.1256 141.144 26.6308C140.896 26.136 140.531 25.7897 140.049 25.5917C139.579 25.3814 138.997 25.2763 138.305 25.2763C137.587 25.2763 136.963 25.4186 136.431 25.7031C135.911 25.9876 135.478 26.3834 135.132 26.8906C134.798 27.3854 134.544 27.9667 134.371 28.6347C134.198 29.3027 134.111 30.0201 134.111 30.787ZM156.6 21.454V41.5302H151.237V21.454H156.6ZM150.903 16.2216C150.903 15.4423 151.175 14.7991 151.72 14.2919C152.264 13.7848 152.994 13.5312 153.909 13.5312C154.812 13.5312 155.536 13.7848 156.08 14.2919C156.637 14.7991 156.915 15.4423 156.915 16.2216C156.915 17.0009 156.637 17.6441 156.08 18.1513C155.536 18.6585 154.812 18.912 153.909 18.912C152.994 18.912 152.264 18.6585 151.72 18.1513C151.175 17.6441 150.903 17.0009 150.903 16.2216ZM169.31 37.7265C169.965 37.7265 170.547 37.6028 171.054 37.3554C171.561 37.0956 171.957 36.7369 172.241 36.2792C172.538 35.8092 172.693 35.2587 172.705 34.6279H177.733C177.721 36.038 177.344 37.2936 176.602 38.3945C175.859 39.483 174.864 40.3427 173.614 40.9736C172.365 41.5921 170.967 41.9013 169.421 41.9013C167.862 41.9013 166.502 41.6415 165.339 41.122C164.188 40.6025 163.23 39.885 162.463 38.9697C161.696 38.0419 161.121 36.9658 160.737 35.7411C160.354 34.5042 160.162 33.1806 160.162 31.7704V31.2324C160.162 29.8098 160.354 28.4863 160.737 27.2617C161.121 26.0247 161.696 24.9485 162.463 24.0331C163.23 23.1054 164.188 22.3818 165.339 21.8622C166.489 21.3427 167.838 21.0829 169.384 21.0829C171.029 21.0829 172.47 21.3984 173.707 22.0292C174.956 22.6601 175.934 23.5631 176.639 24.7382C177.356 25.901 177.721 27.2802 177.733 28.8759H172.705C172.693 28.2079 172.55 27.6018 172.278 27.0576C172.019 26.5133 171.635 26.0803 171.128 25.7587C170.633 25.4247 170.021 25.2577 169.291 25.2577C168.512 25.2577 167.875 25.4247 167.38 25.7587C166.885 26.0803 166.502 26.5257 166.229 27.0947C165.957 27.6513 165.766 28.2883 165.654 29.0058C165.555 29.7109 165.506 30.4531 165.506 31.2324V31.7704C165.506 32.5497 165.555 33.2981 165.654 34.0156C165.753 34.733 165.939 35.3701 166.211 35.9267C166.495 36.4833 166.885 36.9225 167.38 37.2441C167.875 37.5657 168.518 37.7265 169.31 37.7265ZM186.176 13.0117V41.5302H180.832V13.0117H186.176ZM198.83 21.454L190.109 31.3994L185.434 36.1308L183.485 32.2714L187.196 27.5585L192.41 21.454H198.83ZM193.282 41.5302L187.345 32.2529L191.037 29.0244L199.442 41.5302H193.282Z" fill="#274C5B"/>
<path d="M1.85071 42.0986H19.291H36.7313" stroke="#7EB693" stroke-width="2" stroke-miterlimit="10"/>
<path d="M5.79102 48.5293H19.291H32.791" stroke="#7EB693" stroke-width="2" stroke-miterlimit="10"/>
<path d="M18.791 1.5293V8.5293V15.5293" stroke="#7EB693" stroke-width="2" stroke-miterlimit="10"/>
<path d="M18.8656 14.8145V41.2461" stroke="#7EB693" stroke-width="2" stroke-miterlimit="10"/>
<path d="M29.9253 4.58203L18.8656 15.6663" stroke="#7EB693" stroke-width="2" stroke-miterlimit="10"/>
<path d="M34.179 8.8457L18.8656 24.1931" stroke="#7EB693" stroke-width="2" stroke-miterlimit="10"/>
<path d="M36.7313 15.666L18.8656 32.7187" stroke="#7EB693" stroke-width="2" stroke-miterlimit="10"/>
<path d="M37.582 23.3408L18.8656 42.0987" stroke="#7EB693" stroke-width="2" stroke-miterlimit="10"/>
<path d="M37.5821 31.8662L27.3731 42.0978" stroke="#7EB693" stroke-width="2" stroke-miterlimit="10"/>
<path d="M1 31.8662L11.209 42.0978" stroke="#7EB693" stroke-width="2" stroke-miterlimit="10"/>
<path d="M8.65668 4.58203L18.8656 15.6663" stroke="#7EB693" stroke-width="2" stroke-miterlimit="10"/>
<path d="M4.40295 8.8457L18.8656 24.1931" stroke="#7EB693" stroke-width="2" stroke-miterlimit="10"/>
<path d="M1.85071 14.8145L18.8656 32.7198" stroke="#7EB693" stroke-width="2" stroke-miterlimit="10"/>
<path d="M1 22.4873L18.8657 41.2452" stroke="#7EB693" stroke-width="2" stroke-miterlimit="10"/>
<path d="M19.291 54.8877C9.19019 54.8877 1 46.4354 1 36.007V20.0525C1 9.62607 9.19019 1.17188 19.291 1.17188C29.3937 1.17188 37.5821 9.62607 37.5821 20.0525V36.007C37.5839 46.4354 29.3937 54.8877 19.291 54.8877Z" stroke="#7EB693" stroke-width="2" stroke-miterlimit="10"/>
</g>
<defs>
<clipPath id="clip0_1_486">
<rect width="200" height="56" fill="white" transform="translate(0 0.171875)"/>
</clipPath>
</defs>
</svg>
